<?xml version="1.0" encoding="UTF-8"?>
<svg xmlns="http://www.w3.org/2000/svg" xmlns:xlink="http://www.w3.org/1999/xlink" width="32px" height="32px" viewBox="0 0 32 32" version="1.1">
<g id="surface1">
<path style=" stroke:none;fill-rule:nonzero;fill:rgb(12.941177%,40.784314%,76.862746%);fill-opacity:1;" d="M 13.878906 5.125 C 11.019531 6.136719 8.800781 9.023438 7.871094 12.953125 C 7.667969 13.863281 7.625 14.320312 7.625 16.015625 C 7.636719 18.078125 7.703125 18.5625 8.179688 20.214844 C 9.152344 23.488281 11.316406 26.019531 13.921875 26.902344 C 15.070312 27.300781 16.929688 27.300781 18.089844 26.902344 C 20.980469 25.921875 23.1875 23.046875 24.128906 19.074219 C 24.332031 18.164062 24.375 17.707031 24.375 16.015625 C 24.375 14.320312 24.332031 13.863281 24.128906 12.953125 C 23.199219 8.996094 20.96875 6.105469 18.078125 5.125 C 16.949219 4.738281 14.988281 4.738281 13.878906 5.125 Z M 17.546875 8.285156 C 18.003906 8.570312 18.132812 9.082031 18.132812 10.71875 C 18.132812 12.128906 18.121094 12.226562 17.824219 12.753906 C 17.300781 13.722656 16.363281 14.804688 16.054688 14.804688 C 15.851562 14.804688 15.53125 14.492188 14.847656 13.609375 L 13.921875 12.414062 L 13.886719 10.890625 C 13.824219 8.339844 13.984375 8.128906 15.96875 8.113281 C 16.757812 8.113281 17.375 8.183594 17.546875 8.285156 Z M 14.144531 14.378906 C 14.601562 15.019531 15.019531 15.628906 15.070312 15.742188 C 15.242188 16.15625 15.039062 16.613281 14.1875 17.695312 L 13.332031 18.789062 L 12.011719 18.789062 C 10.730469 18.789062 10.6875 18.777344 10.410156 18.421875 C 10.132812 18.050781 10.132812 18.007812 10.132812 16.015625 C 10.132812 14.019531 10.132812 13.980469 10.410156 13.609375 C 10.6875 13.253906 10.730469 13.238281 12 13.238281 L 13.300781 13.238281 Z M 21.449219 13.378906 C 21.84375 13.679688 21.972656 14.277344 21.972656 15.941406 C 21.972656 17.636719 21.835938 18.363281 21.460938 18.632812 C 21.332031 18.71875 20.683594 18.789062 20 18.789062 L 18.761719 18.789062 L 18.046875 17.921875 C 16.628906 16.183594 16.628906 16.140625 17.84375 14.460938 L 18.71875 13.238281 L 19.980469 13.238281 C 20.671875 13.238281 21.332031 13.308594 21.449219 13.378906 Z M 17.195312 18.476562 L 18.132812 19.730469 L 18.132812 21.324219 C 18.132812 22.875 18.121094 22.917969 17.824219 23.375 L 17.515625 23.84375 L 16.136719 23.886719 C 14.59375 23.929688 14.347656 23.828125 14.058594 23.058594 C 13.84375 22.503906 13.792969 20.355469 13.960938 19.757812 C 14.015625 19.574219 14.410156 18.933594 14.847656 18.320312 C 15.902344 16.839844 15.96875 16.839844 17.195312 18.476562 Z M 17.195312 18.476562 "/>
</g>
</svg>
